<svg width="35" height="34" viewBox="0 0 35 34" fill="none" xmlns="http://www.w3.org/2000/svg">
<path d="M18.8027 3.20145L28.0252 8.17395C29.1019 8.75478 29.1019 10.4123 28.0252 10.9932L18.8027 15.9657C17.981 16.4048 17.0177 16.4048 16.196 15.9657L6.97352 10.9932C5.89685 10.4123 5.89685 8.75478 6.97352 8.17395L16.196 3.20145C17.0177 2.76228 17.981 2.76228 18.8027 3.20145Z" stroke="#4E91FC" stroke-width="2" stroke-linecap="round" stroke-linejoin="round"/>
<path d="M5.61482 14.3506L14.1856 18.6431C15.2481 19.1814 15.9281 20.2723 15.9281 21.4623V29.5656C15.9281 30.7414 14.6956 31.4923 13.6473 30.9681L5.07648 26.6756C4.01398 26.1373 3.33398 25.0464 3.33398 23.8564V15.7531C3.33398 14.5773 4.56648 13.8264 5.61482 14.3506Z" stroke="#4E91FC" stroke-width="2" stroke-linecap="round" stroke-linejoin="round"/>
<path d="M29.3856 14.3506L20.8148 18.6431C19.7523 19.1814 19.0723 20.2723 19.0723 21.4623V29.5656C19.0723 30.7414 20.3048 31.4923 21.3531 30.9681L29.924 26.6756C30.9865 26.1373 31.6665 25.0464 31.6665 23.8564V15.7531C31.6665 14.5773 30.434 13.8264 29.3856 14.3506Z" stroke="#4E91FC" stroke-width="2" stroke-linecap="round" stroke-linejoin="round"/>
</svg>
