<svg width="35" height="34" viewBox="0 0 35 34" fill="none" xmlns="http://www.w3.org/2000/svg">
<path d="M17.7129 23.375V26.35" stroke="#4E91FC" stroke-width="2" stroke-linecap="round" stroke-linejoin="round"/>
<path d="M10.6289 31.167H24.7955V29.7504C24.7955 28.192 23.5205 26.917 21.9622 26.917H13.4622C11.9038 26.917 10.6289 28.192 10.6289 29.7504V31.167Z" stroke="#4E91FC" stroke-width="2" stroke-miterlimit="10"/>
<path d="M9.21289 31.167H26.2129" stroke="#4E91FC" stroke-width="2" stroke-linecap="round" stroke-linejoin="round"/>
<path d="M17.5006 22.6663C12.0181 22.6663 7.58398 18.2321 7.58398 12.7496V8.49968C7.58398 5.36885 10.1198 2.83301 13.2506 2.83301H21.7506C24.8815 2.83301 27.4173 5.36885 27.4173 8.49968V12.7496C27.4173 18.2321 22.9831 22.6663 17.5006 22.6663Z" stroke="#4E91FC" stroke-width="2" stroke-linecap="round" stroke-linejoin="round"/>
<path d="M8.24979 16.5037C7.18729 16.1637 6.25229 15.5404 5.51562 14.8037C4.24062 13.3871 3.39062 11.6871 3.39062 9.70377C3.39062 7.72044 4.94897 6.16211 6.9323 6.16211H7.85314C7.5698 6.81377 7.42812 7.53627 7.42812 8.28711V12.5371C7.42812 13.9537 7.72562 15.2854 8.24979 16.5037Z" stroke="#4E91FC" stroke-width="2" stroke-linecap="round" stroke-linejoin="round"/>
<path d="M26.75 16.5037C27.8125 16.1637 28.7475 15.5404 29.4841 14.8037C30.7591 13.3871 31.6091 11.6871 31.6091 9.70377C31.6091 7.72044 30.0508 6.16211 28.0675 6.16211H27.1466C27.43 6.81377 27.5716 7.53627 27.5716 8.28711V12.5371C27.5716 13.9537 27.2741 15.2854 26.75 16.5037Z" stroke="#4E91FC" stroke-width="2" stroke-linecap="round" stroke-linejoin="round"/>
</svg>
