<svg width="36" height="34" viewBox="0 0 36 34" fill="none" xmlns="http://www.w3.org/2000/svg">
<path d="M18.0008 19.833H19.4174C20.9758 19.833 22.2508 18.558 22.2508 16.9996V2.83301H9.50079C7.37579 2.83301 5.51997 4.00883 4.55664 5.73716" stroke="#4E91FC" stroke-width="2" stroke-linecap="round" stroke-linejoin="round"/>
<path d="M3.83398 24.083C3.83398 26.4346 5.73232 28.333 8.08398 28.333H9.50065C9.50065 26.7746 10.7756 25.4996 12.334 25.4996C13.8923 25.4996 15.1673 26.7746 15.1673 28.333H20.834C20.834 26.7746 22.109 25.4996 23.6673 25.4996C25.2256 25.4996 26.5006 26.7746 26.5006 28.333H27.9173C30.269 28.333 32.1673 26.4346 32.1673 24.083V19.833H27.9173C27.1381 19.833 26.5006 19.1955 26.5006 18.4163V14.1663C26.5006 13.3871 27.1381 12.7496 27.9173 12.7496H29.7448L27.3223 8.51386C26.8123 7.63553 25.8773 7.08301 24.8573 7.08301H22.2506V16.9996C22.2506 18.558 20.9756 19.833 19.4173 19.833H18.0006" stroke="#4E91FC" stroke-width="2" stroke-linecap="round" stroke-linejoin="round"/>
<path d="M12.3333 31.1667C13.8981 31.1667 15.1667 29.8981 15.1667 28.3333C15.1667 26.7685 13.8981 25.5 12.3333 25.5C10.7685 25.5 9.5 26.7685 9.5 28.3333C9.5 29.8981 10.7685 31.1667 12.3333 31.1667Z" stroke="#4E91FC" stroke-width="2" stroke-linecap="round" stroke-linejoin="round"/>
<path d="M23.6673 31.1667C25.2321 31.1667 26.5006 29.8981 26.5006 28.3333C26.5006 26.7685 25.2321 25.5 23.6673 25.5C22.1025 25.5 20.834 26.7685 20.834 28.3333C20.834 29.8981 22.1025 31.1667 23.6673 31.1667Z" stroke="#4E91FC" stroke-width="2" stroke-linecap="round" stroke-linejoin="round"/>
<path d="M32.1667 17V19.8333H27.9167C27.1375 19.8333 26.5 19.1958 26.5 18.4167V14.1667C26.5 13.3875 27.1375 12.75 27.9167 12.75H29.7441L32.1667 17Z" stroke="#4E91FC" stroke-width="2" stroke-linecap="round" stroke-linejoin="round"/>
<path d="M3.83398 11.333H12.334" stroke="#4E91FC" stroke-width="2" stroke-linecap="round" stroke-linejoin="round"/>
<path d="M3.83398 15.583H9.50065" stroke="#4E91FC" stroke-width="2" stroke-linecap="round" stroke-linejoin="round"/>
<path d="M3.83398 19.833H6.66732" stroke="#4E91FC" stroke-width="2" stroke-linecap="round" stroke-linejoin="round"/>
</svg>
