<svg width="35" height="34" viewBox="0 0 35 34" fill="none" xmlns="http://www.w3.org/2000/svg">
<path d="M15.3601 3.15946L8.29091 5.80862C6.66174 6.41779 5.33008 8.34444 5.33008 10.0869V20.6127C5.33008 22.2844 6.4351 24.4802 7.78093 25.486L13.8726 30.0336C15.8701 31.5352 19.1568 31.5352 21.1543 30.0336L27.2459 25.486C28.5918 24.4802 29.6968 22.2844 29.6968 20.6127V10.0869C29.6968 8.34444 28.3651 6.41779 26.7359 5.80862L19.6668 3.15946C18.4626 2.72029 16.5359 2.72029 15.3601 3.15946Z" stroke="#4E91FC" stroke-width="2" stroke-linecap="round" stroke-linejoin="round"/>
<path d="M17.5002 15.4701C17.4435 15.4701 17.3727 15.4701 17.316 15.4701C15.9844 15.4276 14.9219 14.3226 14.9219 12.9767C14.9219 11.6026 16.041 10.4834 17.4152 10.4834C18.7894 10.4834 19.9085 11.6026 19.9085 12.9767C19.8944 14.3367 18.8319 15.4276 17.5002 15.4701Z" stroke="#4E91FC" stroke-width="2" stroke-linecap="round" stroke-linejoin="round"/>
<path d="M14.6802 19.4367C13.3202 20.3434 13.3202 21.8309 14.6802 22.7376C16.2244 23.7717 18.7602 23.7717 20.3044 22.7376C21.6644 21.8309 21.6644 20.3434 20.3044 19.4367C18.7744 18.4026 16.2385 18.4026 14.6802 19.4367Z" stroke="#4E91FC" stroke-width="2" stroke-linecap="round" stroke-linejoin="round"/>
</svg>
