<svg width="155" height="36" viewBox="0 0 155 36" fill="none" xmlns="http://www.w3.org/2000/svg">
<path fill-rule="evenodd" clip-rule="evenodd" d="M18 36C27.9411 36 36 27.9411 36 18C36 8.05887 27.9411 0 18 0C8.05887 0 0 8.05887 0 18C0 27.9411 8.05887 36 18 36ZM8.31265 25.4698H5.13016L8.6087 15.0267C9.87606 11.7809 10.385 10.62 12.8644 10.6199C15.3437 10.6198 25.4833 10.6199 25.4833 10.6199H30.9602C29.9837 12.4227 29.1372 12.7751 27.3706 12.8418H16.861C12.7152 12.8686 12.6775 12.9679 11.7264 15.472L11.7264 15.4721L11.7263 15.4722L11.7263 15.4723C11.6247 15.7398 11.5127 16.0347 11.3841 16.3599L8.31265 25.4698ZM11.6432 19.6188L12.4203 17.4339H15.6028C15.8002 18.3325 16.0206 18.8103 16.6759 19.6188H11.6432ZM16.861 13.9529H20.2285C19.1183 15.3601 19.8214 17.1007 21.2647 17.4339H24.1141C29.4059 17.4339 27.8517 25.4698 22.7079 25.4698H10.0149C10.533 24.1738 11.4951 23.248 13.2344 23.248H22.1898C24.3731 23.0999 25.7424 20.1373 23.337 19.6188H19.3774C17.157 19.767 15.9728 17.0636 16.861 13.9529Z" fill="#4E91FC"/>
<path d="M46 25.8501V11.0951H56.2609V14.3228H49.9618V16.8588H55.6338V20.0865H49.9618V25.8501H46ZM61.7084 11.0951V25.8501H57.7751V11.0951H61.7084ZM68.9568 26.0519C67.7882 26.0519 66.7812 25.8261 65.9356 25.3746C65.0948 24.9183 64.4464 24.2651 63.9904 23.415C63.5391 22.56 63.3134 21.537 63.3134 20.3458C63.3134 19.2027 63.5415 18.2037 63.9975 17.3487C64.4535 16.4938 65.0972 15.8285 65.9285 15.353C66.7598 14.8775 67.7408 14.6398 68.8713 14.6398C69.698 14.6398 70.4461 14.7695 71.116 15.0288C71.7857 15.2882 72.3582 15.6652 72.8333 16.1599C73.3084 16.6499 73.6741 17.2454 73.9306 17.9467C74.1871 18.6479 74.3154 19.438 74.3154 20.317V21.2392H64.539V19.049H70.6956C70.6908 18.732 70.6099 18.4534 70.4532 18.2132C70.3012 17.9683 70.0947 17.7786 69.8334 17.6441C69.5768 17.5048 69.2848 17.4352 68.9568 17.4352C68.6387 17.4352 68.3465 17.5048 68.0804 17.6441C67.8143 17.7786 67.6007 17.9659 67.4391 18.206C67.2824 18.4462 67.1992 18.7272 67.1898 19.049V21.4121C67.1898 21.7675 67.2634 22.0845 67.4107 22.3631C67.5579 22.6417 67.7694 22.8602 68.0449 23.0187C68.3204 23.1772 68.6529 23.2565 69.0423 23.2565C69.3132 23.2565 69.5603 23.2181 69.7835 23.1412C70.0115 23.0644 70.2063 22.9539 70.3677 22.8098C70.5293 22.6609 70.648 22.4832 70.7241 22.2767H74.3154C74.1919 23.0452 73.8997 23.7128 73.439 24.2795C72.9781 24.8415 72.3678 25.2786 71.6076 25.5908C70.8524 25.8982 69.9687 26.0519 68.9568 26.0519ZM79.1945 14.7839L80.7908 18.2132L82.4723 14.7839H86.3772L83.4415 20.317L86.5197 25.8501H82.6433L80.7908 22.3343L78.9951 25.8501H75.0618L78.1684 20.317L75.2612 14.7839H79.1945ZM87.7755 25.8501V14.7839H91.709V25.8501H87.7755ZM89.7424 13.6311C89.2102 13.6311 88.7541 13.4534 88.3741 13.098C87.9942 12.7426 87.8042 12.3151 87.8042 11.8156C87.8042 11.316 87.9942 10.8886 88.3741 10.5331C88.7541 10.1777 89.2102 10 89.7424 10C90.2791 10 90.7352 10.1777 91.1104 10.5331C91.4904 10.8886 91.6804 11.316 91.6804 11.8156C91.6804 12.3151 91.4904 12.7426 91.1104 13.098C90.7352 13.4534 90.2791 13.6311 89.7424 13.6311ZM101.523 15.706C101.485 15.2257 101.306 14.8511 100.988 14.5821C100.675 14.3132 100.197 14.1787 99.556 14.1787C99.1475 14.1787 98.8125 14.2291 98.5512 14.33C98.2948 14.426 98.1048 14.5581 97.9812 14.7262C97.8577 14.8943 97.7935 15.0865 97.7889 15.3026C97.7793 15.4803 97.8103 15.6412 97.8815 15.7853C97.9576 15.9246 98.0763 16.0519 98.2377 16.1671C98.3993 16.2776 98.606 16.3785 98.8576 16.4697C99.1095 16.561 99.4088 16.6426 99.7556 16.7147L100.953 16.9741C101.76 17.147 102.451 17.3751 103.026 17.6585C103.601 17.9419 104.071 18.2757 104.437 18.6599C104.803 19.0394 105.071 19.4669 105.242 19.9424C105.418 20.4179 105.508 20.9366 105.513 21.4986C105.508 22.4688 105.268 23.2901 104.793 23.9625C104.318 24.635 103.639 25.1465 102.755 25.4971C101.877 25.8477 100.82 26.0231 99.5846 26.0231C98.3161 26.0231 97.2093 25.8333 96.2639 25.4539C95.3234 25.0744 94.5918 24.4909 94.0693 23.7032C93.5515 22.9107 93.2902 21.8972 93.2854 20.6628H97.0478C97.0716 21.1143 97.1832 21.4938 97.3828 21.8011C97.5822 22.1086 97.8625 22.3415 98.2235 22.5C98.5893 22.6585 99.024 22.7377 99.5275 22.7377C99.9504 22.7377 100.304 22.6849 100.589 22.5792C100.874 22.4736 101.09 22.3271 101.238 22.1398C101.385 21.9524 101.461 21.7387 101.466 21.4986C101.461 21.2728 101.387 21.0759 101.245 20.9078C101.107 20.7349 100.879 20.5812 100.561 20.4467C100.242 20.3074 99.8126 20.1777 99.2711 20.0576L97.8174 19.7406C96.5252 19.4572 95.5062 18.9842 94.7605 18.3213C94.0195 17.6537 93.6512 16.7435 93.656 15.5908C93.6512 14.6542 93.8983 13.8352 94.397 13.134C94.9007 12.4279 95.5965 11.878 96.4849 11.4841C97.378 11.0903 98.4018 10.8934 99.556 10.8934C100.734 10.8934 101.753 11.0927 102.613 11.4914C103.473 11.89 104.135 12.452 104.601 13.1772C105.071 13.8977 105.309 14.7406 105.314 15.706H101.523ZM107.077 30V14.7839H110.982V16.7147H111.067C111.21 16.3401 111.419 15.9966 111.694 15.6844C111.97 15.3674 112.312 15.1153 112.721 14.928C113.129 14.7358 113.604 14.6398 114.146 14.6398C114.868 14.6398 115.554 14.8343 116.205 15.2233C116.861 15.6124 117.393 16.2248 117.801 17.0605C118.214 17.8962 118.421 18.9817 118.421 20.317C118.421 21.5946 118.224 22.6537 117.83 23.4942C117.44 24.3348 116.918 24.9616 116.262 25.3746C115.611 25.7877 114.896 25.9942 114.117 25.9942C113.604 25.9942 113.146 25.9102 112.742 25.7421C112.343 25.5692 112.001 25.3362 111.716 25.0432C111.436 24.7454 111.219 24.4092 111.067 24.0346H111.01V30H107.077ZM110.925 20.317C110.925 20.8549 110.994 21.3208 111.132 21.7147C111.274 22.1037 111.474 22.4063 111.73 22.6225C111.991 22.8338 112.302 22.9395 112.664 22.9395C113.025 22.9395 113.331 22.8362 113.583 22.6297C113.839 22.4184 114.034 22.1182 114.167 21.7291C114.305 21.3353 114.374 20.8646 114.374 20.317C114.374 19.7695 114.305 19.3012 114.167 18.9121C114.034 18.5182 113.839 18.2181 113.583 18.0115C113.331 17.8002 113.025 17.6945 112.664 17.6945C112.302 17.6945 111.991 17.8002 111.73 18.0115C111.474 18.2181 111.274 18.5182 111.132 18.9121C110.994 19.3012 110.925 19.7695 110.925 20.317ZM123.119 26.0231C122.42 26.0231 121.803 25.9078 121.266 25.6772C120.734 25.4419 120.316 25.0865 120.012 24.611C119.708 24.1354 119.556 23.5302 119.556 22.7954C119.556 22.1902 119.658 21.6739 119.862 21.2464C120.066 20.8141 120.352 20.4611 120.717 20.1873C121.083 19.9135 121.508 19.7046 121.993 19.5605C122.482 19.4164 123.009 19.3228 123.575 19.2795C124.187 19.2315 124.679 19.1739 125.05 19.1066C125.425 19.0346 125.696 18.9361 125.862 18.8112C126.028 18.6815 126.111 18.511 126.111 18.2997V18.2709C126.111 17.9827 126.002 17.7618 125.784 17.6081C125.565 17.4544 125.285 17.3775 124.943 17.3775C124.567 17.3775 124.261 17.4616 124.024 17.6297C123.791 17.793 123.651 18.0452 123.603 18.3862H119.983C120.031 17.7137 120.242 17.0941 120.617 16.5274C120.998 15.9558 121.551 15.4995 122.278 15.1585C123.005 14.8127 123.912 14.6398 125 14.6398C125.784 14.6398 126.487 14.7334 127.109 14.9207C127.731 15.1033 128.261 15.3602 128.698 15.6916C129.135 16.0183 129.467 16.4025 129.695 16.8444C129.928 17.2814 130.045 17.757 130.045 18.2709V25.8501H126.368V24.294H126.282C126.064 24.707 125.798 25.0408 125.484 25.2954C125.175 25.5499 124.822 25.7349 124.423 25.8501C124.028 25.9654 123.594 26.0231 123.119 26.0231ZM124.401 23.5158C124.701 23.5158 124.981 23.4534 125.242 23.3285C125.508 23.2037 125.724 23.0235 125.891 22.7882C126.057 22.5528 126.14 22.2671 126.14 21.9308V21.0086C126.035 21.0519 125.924 21.0927 125.805 21.1311C125.691 21.1696 125.567 21.2056 125.434 21.2392C125.306 21.2728 125.168 21.304 125.021 21.3328C124.879 21.3617 124.729 21.3881 124.572 21.4121C124.268 21.4601 124.019 21.5394 123.824 21.6499C123.634 21.7555 123.491 21.8876 123.397 22.0461C123.306 22.1998 123.261 22.3727 123.261 22.5648C123.261 22.8722 123.368 23.1076 123.582 23.2709C123.796 23.4342 124.069 23.5158 124.401 23.5158ZM137.197 26.0519C136.009 26.0519 134.993 25.8141 134.147 25.3386C133.302 24.8583 132.653 24.1907 132.202 23.3357C131.751 22.476 131.525 21.4793 131.525 20.3458C131.525 19.2123 131.751 18.2181 132.202 17.3631C132.653 16.5034 133.302 15.8357 134.147 15.3602C134.993 14.8799 136.009 14.6398 137.197 14.6398C138.271 14.6398 139.199 14.8367 139.983 15.2305C140.772 15.6196 141.382 16.1719 141.814 16.8876C142.247 17.5985 142.465 18.4342 142.47 19.3948H138.822C138.769 18.8136 138.603 18.3717 138.323 18.0692C138.047 17.7618 137.691 17.6081 137.254 17.6081C136.912 17.6081 136.613 17.7089 136.356 17.9107C136.1 18.1076 135.9 18.4078 135.758 18.8112C135.615 19.2099 135.544 19.7118 135.544 20.317C135.544 20.9222 135.615 21.4265 135.758 21.83C135.9 22.2286 136.1 22.5288 136.356 22.7305C136.613 22.9275 136.912 23.0259 137.254 23.0259C137.544 23.0259 137.8 22.9587 138.024 22.8242C138.247 22.6849 138.427 22.4832 138.565 22.219C138.708 21.9501 138.793 21.6234 138.822 21.2392H142.47C142.456 22.2142 142.235 23.0644 141.807 23.7896C141.38 24.5101 140.774 25.0672 139.99 25.4611C139.211 25.8549 138.28 26.0519 137.197 26.0519ZM149.337 26.0519C148.169 26.0519 147.162 25.8261 146.316 25.3746C145.475 24.9183 144.827 24.2651 144.371 23.415C143.919 22.56 143.694 21.537 143.694 20.3458C143.694 19.2027 143.922 18.2037 144.378 17.3487C144.834 16.4938 145.478 15.8285 146.309 15.353C147.14 14.8775 148.121 14.6398 149.252 14.6398C150.078 14.6398 150.827 14.7695 151.496 15.0288C152.166 15.2882 152.739 15.6652 153.214 16.1599C153.689 16.6499 154.054 17.2454 154.311 17.9467C154.568 18.6479 154.696 19.438 154.696 20.317V21.2392H144.919V19.049H151.076C151.071 18.732 150.99 18.4534 150.834 18.2132C150.682 17.9683 150.475 17.7786 150.214 17.6441C149.957 17.5048 149.665 17.4352 149.337 17.4352C149.019 17.4352 148.727 17.5048 148.461 17.6441C148.195 17.7786 147.981 17.9659 147.82 18.206C147.663 18.4462 147.58 18.7272 147.57 19.049V21.4121C147.57 21.7675 147.644 22.0845 147.791 22.3631C147.938 22.6417 148.15 22.8602 148.425 23.0187C148.701 23.1772 149.033 23.2565 149.423 23.2565C149.693 23.2565 149.941 23.2181 150.164 23.1412C150.392 23.0644 150.587 22.9539 150.748 22.8098C150.91 22.6609 151.028 22.4832 151.104 22.2767H154.696C154.572 23.0452 154.28 23.7128 153.819 24.2795C153.359 24.8415 152.748 25.2786 151.988 25.5908C151.233 25.8982 150.349 26.0519 149.337 26.0519Z" fill="#000929"/>
</svg>
