<svg width="36" height="36" viewBox="0 0 36 36" fill="none" xmlns="http://www.w3.org/2000/svg">
<rect width="36" height="36" rx="18" fill="#4E91FC"/>
<path d="M8.18249 25.85H5L8.47854 15.4069C9.7459 12.161 10.2548 11.0002 12.7342 11C15.2136 10.9999 25.3532 11 25.3532 11H30.83C29.8535 12.8029 29.007 13.1553 27.2404 13.222H16.7308C12.1421 13.2516 12.5862 13.3701 11.254 16.7401L8.18249 25.85Z" fill="white"/>
<path d="M11.513 19.999L12.2901 17.8141H15.4726C15.6701 18.7127 15.8905 19.1904 16.5458 19.999H11.513Z" fill="white"/>
<path d="M20.0983 14.3331H16.7308C15.8427 17.4438 17.0269 20.1471 19.2472 19.999H23.2068C25.6122 20.5175 24.243 23.48 22.0596 23.6282H13.1043C11.365 23.6282 10.4028 24.554 9.88476 25.85H22.5777C27.7215 25.85 29.2758 17.8141 23.9839 17.8141H21.1345C19.6913 17.4808 18.9882 15.7403 20.0983 14.3331Z" fill="white"/>
</svg>
